<svg width="447" height="191" viewBox="0 0 447 191" fill="none" xmlns="http://www.w3.org/2000/svg">
<path d="M212.289 0V5.14449H190.868V28.2947H208.951V33.4392H190.868V62H186V0H212.289Z" fill="#1e0000"/>
<path d="M225.167 0V62H220.299V0H225.167Z" fill="#1e0000"/>
<path d="M272.844 62H267.975L241.06 9.8455V62H236.192V0H241.06L267.975 52.0658V0H272.844V62Z" fill="#1e0000"/>
<path d="M298.267 0C303.645 0 308.259 1.24178 312.107 3.72533C315.956 6.20887 318.9 9.78637 320.94 14.4578C322.98 19.1292 324 24.6877 324 31.133C324 37.5193 322.98 43.0482 320.94 47.7196C318.9 52.3319 315.956 55.8798 312.107 58.3634C308.259 60.7878 303.645 62 298.267 62H283.871V0H298.267ZM298.267 56.8555C305.036 56.8555 310.183 54.6085 313.707 50.1144C317.277 45.5613 319.062 39.2341 319.062 31.133C319.062 22.9728 317.277 16.6161 313.707 12.0629C310.183 7.45065 305.036 5.14449 298.267 5.14449H288.739V56.8555H298.267Z" fill="#1e0000"/>
<path d="M230.711 71.6286V115H226.129V80.3657L210.025 115H206.686L190.582 80.4914V115H186V71.6286H190.844L208.323 109.217L225.801 71.6286H230.711Z" fill="#1e0000"/>
<path d="M245.689 74.6457V91.0514H263.036V94.6971H245.689V111.354H265V115H241.106V71H265V74.6457H245.689Z" fill="#1e0000"/>
<path d="M226.928 125.524V187.373H222.733V137.983L207.992 187.373H204.936L190.195 138.162V187.373H186V125.524H190.434L206.434 179.126L222.433 125.524H226.928Z" fill="#1e0000"/>
<path d="M261.312 172.493H242.256L238.601 187.373H234.166L249.447 125.524H254.181L269.401 187.373H264.967L261.312 172.493ZM260.053 167.294L251.784 133.412L243.514 167.294H260.053Z" fill="#1e0000"/>
<path d="M308.312 187.373H304.118L280.927 134.667V187.373H276.733V124.717H280.927L304.118 177.333V124.717H308.312V187.373Z" fill="#1e0000"/>
<path d="M331.116 188C328.359 188 325.923 187.283 323.805 185.849C321.728 184.415 320.09 182.413 318.892 179.843C317.693 177.274 317.054 174.405 316.974 171.238H321.408C321.608 174.286 322.507 176.975 324.105 179.305C325.703 181.576 328.04 182.711 331.116 182.711C333.952 182.711 336.189 181.636 337.827 179.485C339.505 177.274 340.344 174.495 340.344 171.148C340.344 168.459 339.885 166.308 338.966 164.695C338.047 163.021 336.909 161.796 335.55 161.02C334.192 160.183 332.314 159.287 329.917 158.331C327.121 157.195 324.904 156.09 323.266 155.014C321.628 153.938 320.23 152.265 319.071 149.994C317.913 147.724 317.334 144.646 317.334 140.762C317.334 137.535 317.893 134.667 319.011 132.157C320.13 129.587 321.708 127.585 323.745 126.151C325.783 124.717 328.12 124 330.756 124C334.631 124 337.747 125.434 340.104 128.303C342.501 131.111 343.88 134.756 344.239 139.238H339.685C339.405 136.669 338.467 134.398 336.869 132.426C335.271 130.394 333.113 129.378 330.397 129.378C327.88 129.378 325.783 130.394 324.105 132.426C322.427 134.398 321.588 137.117 321.588 140.583C321.588 143.212 322.048 145.333 322.966 146.947C323.885 148.56 325.024 149.785 326.382 150.622C327.78 151.458 329.658 152.355 332.015 153.311C334.731 154.446 336.929 155.582 338.606 156.717C340.284 157.793 341.702 159.466 342.861 161.737C344.019 164.007 344.599 167.055 344.599 170.88C344.599 173.808 344.079 176.586 343.041 179.216C342.002 181.845 340.464 183.966 338.427 185.58C336.389 187.193 333.952 188 331.116 188Z" fill="#1e0000"/>
<path d="M357.498 124.717V187.373H353.304V124.717H357.498Z" fill="#1e0000"/>
<path d="M386.412 188C382.537 188 379.022 186.655 375.866 183.966C372.71 181.218 370.213 177.423 368.375 172.583C366.578 167.683 365.679 162.155 365.679 156C365.679 149.845 366.578 144.347 368.375 139.507C370.213 134.607 372.71 130.812 375.866 128.123C379.022 125.374 382.537 124 386.412 124C390.327 124 393.863 125.374 397.019 128.123C400.175 130.812 402.651 134.607 404.449 139.507C406.247 144.347 407.146 149.845 407.146 156C407.146 162.155 406.247 167.683 404.449 172.583C402.651 177.423 400.175 181.218 397.019 183.966C393.863 186.655 390.327 188 386.412 188ZM386.412 182.532C389.528 182.532 392.325 181.457 394.802 179.305C397.278 177.154 399.236 174.077 400.674 170.073C402.112 166.009 402.831 161.318 402.831 156C402.831 150.682 402.112 146.021 400.674 142.017C399.236 138.013 397.278 134.936 394.802 132.784C392.325 130.633 389.528 129.557 386.412 129.557C383.296 129.557 380.5 130.633 378.023 132.784C375.546 134.936 373.589 138.013 372.15 142.017C370.712 146.021 369.993 150.682 369.993 156C369.993 161.318 370.712 166.009 372.15 170.073C373.589 174.077 375.546 177.154 378.023 179.305C380.5 181.457 383.296 182.532 386.412 182.532Z" fill="#1e0000"/>
<path d="M447 187.373H442.805L419.615 134.667V187.373H415.42V124.717H419.615L442.805 177.333V124.717H447V187.373Z" fill="#1e0000"/>
<path d="M23.0311 101.458V186.651H2V2H86.1246H170.249V186.651H151.555V101.458" stroke="#1e0000" stroke-width="4"/>
<path d="M151.555 103.328C151.555 94.6652 149.876 86.0875 146.615 78.0843C143.354 70.0811 138.573 62.8093 132.547 56.6839C126.521 50.5586 119.367 45.6997 111.493 42.3846C103.62 39.0696 95.181 37.3634 86.6587 37.3634C78.1364 37.3634 69.6976 39.0696 61.824 42.3846C53.9505 45.6997 46.7964 50.5586 40.7702 56.6839C34.7441 62.8093 29.9638 70.0811 26.7025 78.0843C23.4412 86.0875 23.0979 94.6652 23.0979 103.328" stroke="#1e0000" stroke-width="4"/>
<path d="M129.721 99.9849L129.672 102.032H129.733V188.113H44.5416V102.032H44.6026L44.5541 99.9849C44.5458 99.6356 44.5416 99.2852 44.5416 98.9338C44.5416 75.1444 63.6311 55.8933 87.1374 55.8933C110.644 55.8933 129.733 75.1444 129.733 98.9338C129.733 99.2852 129.729 99.6356 129.721 99.9849Z" stroke="#1e0000" stroke-width="4"/>
<line x1="87.3267" y1="55.515" x2="87.3267" y2="188.492" stroke="#1e0000" stroke-width="2"/>
<line x1="130.112" y1="105.165" x2="45.7849" y2="105.165" stroke="#1e0000" stroke-width="2"/>
</svg>
