<svg width="108" height="118" viewBox="0 0 108 118" fill="none" xmlns="http://www.w3.org/2000/svg">
<path d="M14.9689 63.3309V115.865H2V2H53.8754H105.751V115.865H94.2229V63.3309" stroke="#F2EFE6" stroke-width="4"/>
<path d="M94.2229 64.4837C94.2229 59.1419 93.1878 53.8525 91.1767 48.9173C89.1656 43.9822 86.2179 39.498 82.5019 35.7208C78.7858 31.9436 74.3743 28.9474 69.5191 26.9031C64.6638 24.8589 59.46 23.8068 54.2048 23.8068C48.9495 23.8068 43.7457 24.8589 38.8905 26.9031C34.0352 28.9474 29.6237 31.9436 25.9076 35.7208C22.1916 39.498 19.2439 43.9822 17.2328 48.9173C15.2217 53.8525 15.01 59.1419 15.01 64.4837" stroke="#F2EFE6" stroke-width="4"/>
<path d="M79.9925 62.4042L79.944 64.4516H80V116H29V64.4516H29.056L29.0075 62.4042C29.0025 62.1949 29 61.9848 29 61.7742C29 47.5207 40.4354 36 54.5 36C68.5646 36 80 47.5207 80 61.7742C80 61.9848 79.9975 62.1948 79.9925 62.4042Z" stroke="#F2EFE6" stroke-width="4"/>
<line x1="55" y1="35" x2="55" y2="117" stroke="#F2EFE6" stroke-width="2"/>
<line x1="81" y1="66" x2="29" y2="66" stroke="#F2EFE6" stroke-width="2"/>
</svg>
